<svg aria-roledescription="er" role="graphics-document document" viewBox="0 0 557.732421875 906" style="max-width: 557.732px; background-color: rgb(255, 255, 255);" xmlns:xlink="http://www.w3.org/1999/xlink" xmlns="http://www.w3.org/2000/svg" width="100%" id="mermaid-1729747362592"><style>#mermaid-1729747362592{font-family:"trebuchet ms",verdana,arial,sans-serif;font-size:16px;fill:#333;}#mermaid-1729747362592 .error-icon{fill:#552222;}#mermaid-1729747362592 .error-text{fill:#552222;stroke:#552222;}#mermaid-1729747362592 .edge-thickness-normal{stroke-width:2px;}#mermaid-1729747362592 .edge-thickness-thick{stroke-width:3.5px;}#mermaid-1729747362592 .edge-pattern-solid{stroke-dasharray:0;}#mermaid-1729747362592 .edge-pattern-dashed{stroke-dasharray:3;}#mermaid-1729747362592 .edge-pattern-dotted{stroke-dasharray:2;}#mermaid-1729747362592 .marker{fill:#333333;stroke:#333333;}#mermaid-1729747362592 .marker.cross{stroke:#333333;}#mermaid-1729747362592 svg{font-family:"trebuchet ms",verdana,arial,sans-serif;font-size:16px;}#mermaid-1729747362592 .entityBox{fill:#ECECFF;stroke:#9370DB;}#mermaid-1729747362592 .attributeBoxOdd{fill:#ffffff;stroke:#9370DB;}#mermaid-1729747362592 .attributeBoxEven{fill:#f2f2f2;stroke:#9370DB;}#mermaid-1729747362592 .relationshipLabelBox{fill:hsl(80, 100%, 96.2745098039%);opacity:0.7;background-color:hsl(80, 100%, 96.2745098039%);}#mermaid-1729747362592 .relationshipLabelBox rect{opacity:0.5;}#mermaid-1729747362592 .relationshipLine{stroke:#333333;}#mermaid-1729747362592 .entityTitleText{text-anchor:middle;font-size:18px;fill:#333;}#mermaid-1729747362592 #MD_PARENT_START{fill:#f5f5f5!important;stroke:#333333!important;stroke-width:1;}#mermaid-1729747362592 #MD_PARENT_END{fill:#f5f5f5!important;stroke:#333333!important;stroke-width:1;}#mermaid-1729747362592 :root{--mermaid-font-family:"trebuchet ms",verdana,arial,sans-serif;}</style><g/><defs><marker orient="auto" markerHeight="240" markerWidth="190" refY="7" refX="0" id="MD_PARENT_START"><path d="M 18,7 L9,13 L1,7 L9,1 Z"/></marker></defs><defs><marker orient="auto" markerHeight="28" markerWidth="20" refY="7" refX="19" id="MD_PARENT_END"><path d="M 18,7 L9,13 L1,7 L9,1 Z"/></marker></defs><defs><marker orient="auto" markerHeight="18" markerWidth="18" refY="9" refX="0" id="ONLY_ONE_START"><path d="M9,0 L9,18 M15,0 L15,18" fill="none" stroke="gray"/></marker></defs><defs><marker orient="auto" markerHeight="18" markerWidth="18" refY="9" refX="18" id="ONLY_ONE_END"><path d="M3,0 L3,18 M9,0 L9,18" fill="none" stroke="gray"/></marker></defs><defs><marker orient="auto" markerHeight="18" markerWidth="30" refY="9" refX="0" id="ZERO_OR_ONE_START"><circle r="6" cy="9" cx="21" fill="white" stroke="gray"/><path d="M9,0 L9,18" fill="none" stroke="gray"/></marker></defs><defs><marker orient="auto" markerHeight="18" markerWidth="30" refY="9" refX="30" id="ZERO_OR_ONE_END"><circle r="6" cy="9" cx="9" fill="white" stroke="gray"/><path d="M21,0 L21,18" fill="none" stroke="gray"/></marker></defs><defs><marker orient="auto" markerHeight="36" markerWidth="45" refY="18" refX="18" id="ONE_OR_MORE_START"><path d="M0,18 Q 18,0 36,18 Q 18,36 0,18 M42,9 L42,27" fill="none" stroke="gray"/></marker></defs><defs><marker orient="auto" markerHeight="36" markerWidth="45" refY="18" refX="27" id="ONE_OR_MORE_END"><path d="M3,9 L3,27 M9,18 Q27,0 45,18 Q27,36 9,18" fill="none" stroke="gray"/></marker></defs><defs><marker orient="auto" markerHeight="36" markerWidth="57" refY="18" refX="18" id="ZERO_OR_MORE_START"><circle r="6" cy="18" cx="48" fill="white" stroke="gray"/><path d="M0,18 Q18,0 36,18 Q18,36 0,18" fill="none" stroke="gray"/></marker></defs><defs><marker orient="auto" markerHeight="36" markerWidth="57" refY="18" refX="39" id="ZERO_OR_MORE_END"><circle r="6" cy="18" cx="9" fill="white" stroke="gray"/><path d="M21,18 Q39,0 57,18 Q39,36 21,18" fill="none" stroke="gray"/></marker></defs><path style="stroke: gray; fill: none;" marker-start="url(#ONLY_ONE_START)" marker-end="url(#ZERO_OR_MORE_END)" d="M406.439453125,220L406.439453125,228.33333333333334C406.439453125,236.66666666666666,406.439453125,253.33333333333334,406.439453125,270C406.439453125,286.6666666666667,406.439453125,303.3333333333333,406.439453125,311.6666666666667L406.439453125,320" class="er relationshipLine"/><path style="stroke: gray; fill: none;" marker-start="url(#ONLY_ONE_START)" marker-end="url(#ONE_OR_MORE_END)" d="M322.603515625,556.178995066578L315.5276692708333,565.8158292221483C308.4518229166667,575.4526633777186,294.3001302083333,594.7263316888593,277.2177734375,616.6305166276935C260.1354166666667,638.5347015665278,240.12239583333334,663.0694031330557,230.11588541666666,675.3367539163196L220.109375,687.6041046995836" class="er relationshipLine"/><path style="stroke: gray; fill: none;" marker-start="url(#ONLY_ONE_START)" marker-end="url(#ZERO_OR_ONE_END)" d="M441.9045694040698,564L444.3270500242248,572.3333333333334C446.74953064437983,580.6666666666666,451.5944918846899,597.3333333333334,454.01697250484494,615.8333333333334C456.439453125,634.3333333333334,456.439453125,654.6666666666666,456.439453125,664.8333333333334L456.439453125,675" class="er relationshipLine"/><path style="stroke: gray; fill: none;" marker-start="url(#ONLY_ONE_START)" marker-end="url(#ZERO_OR_MORE_END)" d="M98.8203125,564L98.8203125,572.3333333333334C98.8203125,580.6666666666666,98.8203125,597.3333333333334,101.40830421842651,614C103.996295936853,630.6666666666666,109.17227937370599,647.3333333333334,111.7602710921325,655.6666666666666L114.348262810559,664" class="er relationshipLine"/><g transform="translate(320.939453125,20 )" id="entity-users-33ae1e26-be31-5c1d-bf65-e859e9d0308e"><rect height="200" width="171" y="0" x="0" class="er entityBox"/><text style="dominant-baseline: middle; text-anchor: middle; font-size: 12px;" transform="translate(85.5,12)" y="0" x="0" id="text-entity-users-33ae1e26-be31-5c1d-bf65-e859e9d0308e" class="er entityLabel">users</text><rect height="22" width="90.765625" y="24" x="0" class="er attributeBoxOdd"/><text style="dominant-baseline: middle; font-size: 10.2px;" transform="translate(5,35)" y="0" x="0" id="text-entity-users-33ae1e26-be31-5c1d-bf65-e859e9d0308e-attr-1-type" class="er entityLabel">id</text><rect height="22" width="58.671875" y="24" x="90.765625" class="er attributeBoxOdd"/><text style="dominant-baseline: middle; font-size: 10.2px;" transform="translate(95.765625,35)" y="0" x="0" id="text-entity-users-33ae1e26-be31-5c1d-bf65-e859e9d0308e-attr-1-name" class="er entityLabel">bigint</text><rect height="22" width="21.5625" y="24" x="149.4375" class="er attributeBoxOdd"/><text style="dominant-baseline: middle; font-size: 10.2px;" transform="translate(154.4375,35)" y="0" x="0" id="text-entity-users-33ae1e26-be31-5c1d-bf65-e859e9d0308e-attr-1-key" class="er entityLabel">PK</text><rect height="22" width="90.765625" y="46" x="0" class="er attributeBoxEven"/><text style="dominant-baseline: middle; font-size: 10.2px;" transform="translate(5,57)" y="0" x="0" id="text-entity-users-33ae1e26-be31-5c1d-bf65-e859e9d0308e-attr-2-type" class="er entityLabel">name</text><rect height="22" width="58.671875" y="46" x="90.765625" class="er attributeBoxEven"/><text style="dominant-baseline: middle; font-size: 10.2px;" transform="translate(95.765625,57)" y="0" x="0" id="text-entity-users-33ae1e26-be31-5c1d-bf65-e859e9d0308e-attr-2-name" class="er entityLabel">varchar</text><rect height="22" width="21.5625" y="46" x="149.4375" class="er attributeBoxEven"/><text style="dominant-baseline: middle; font-size: 10.2px;" transform="translate(154.4375,57)" y="0" x="0" id="text-entity-users-33ae1e26-be31-5c1d-bf65-e859e9d0308e-attr-2-key" class="er entityLabel"/><rect height="22" width="90.765625" y="68" x="0" class="er attributeBoxOdd"/><text style="dominant-baseline: middle; font-size: 10.2px;" transform="translate(5,79)" y="0" x="0" id="text-entity-users-33ae1e26-be31-5c1d-bf65-e859e9d0308e-attr-3-type" class="er entityLabel">email</text><rect height="22" width="58.671875" y="68" x="90.765625" class="er attributeBoxOdd"/><text style="dominant-baseline: middle; font-size: 10.2px;" transform="translate(95.765625,79)" y="0" x="0" id="text-entity-users-33ae1e26-be31-5c1d-bf65-e859e9d0308e-attr-3-name" class="er entityLabel">varchar</text><rect height="22" width="21.5625" y="68" x="149.4375" class="er attributeBoxOdd"/><text style="dominant-baseline: middle; font-size: 10.2px;" transform="translate(154.4375,79)" y="0" x="0" id="text-entity-users-33ae1e26-be31-5c1d-bf65-e859e9d0308e-attr-3-key" class="er entityLabel"/><rect height="22" width="90.765625" y="90" x="0" class="er attributeBoxEven"/><text style="dominant-baseline: middle; font-size: 10.2px;" transform="translate(5,101)" y="0" x="0" id="text-entity-users-33ae1e26-be31-5c1d-bf65-e859e9d0308e-attr-4-type" class="er entityLabel">password</text><rect height="22" width="58.671875" y="90" x="90.765625" class="er attributeBoxEven"/><text style="dominant-baseline: middle; font-size: 10.2px;" transform="translate(95.765625,101)" y="0" x="0" id="text-entity-users-33ae1e26-be31-5c1d-bf65-e859e9d0308e-attr-4-name" class="er entityLabel">varchar</text><rect height="22" width="21.5625" y="90" x="149.4375" class="er attributeBoxEven"/><text style="dominant-baseline: middle; font-size: 10.2px;" transform="translate(154.4375,101)" y="0" x="0" id="text-entity-users-33ae1e26-be31-5c1d-bf65-e859e9d0308e-attr-4-key" class="er entityLabel"/><rect height="22" width="90.765625" y="112" x="0" class="er attributeBoxOdd"/><text style="dominant-baseline: middle; font-size: 10.2px;" transform="translate(5,123)" y="0" x="0" id="text-entity-users-33ae1e26-be31-5c1d-bf65-e859e9d0308e-attr-5-type" class="er entityLabel">remember_token</text><rect height="22" width="58.671875" y="112" x="90.765625" class="er attributeBoxOdd"/><text style="dominant-baseline: middle; font-size: 10.2px;" transform="translate(95.765625,123)" y="0" x="0" id="text-entity-users-33ae1e26-be31-5c1d-bf65-e859e9d0308e-attr-5-name" class="er entityLabel">varchar</text><rect height="22" width="21.5625" y="112" x="149.4375" class="er attributeBoxOdd"/><text style="dominant-baseline: middle; font-size: 10.2px;" transform="translate(154.4375,123)" y="0" x="0" id="text-entity-users-33ae1e26-be31-5c1d-bf65-e859e9d0308e-attr-5-key" class="er entityLabel"/><rect height="22" width="90.765625" y="134" x="0" class="er attributeBoxEven"/><text style="dominant-baseline: middle; font-size: 10.2px;" transform="translate(5,145)" y="0" x="0" id="text-entity-users-33ae1e26-be31-5c1d-bf65-e859e9d0308e-attr-6-type" class="er entityLabel">email_verified_at</text><rect height="22" width="58.671875" y="134" x="90.765625" class="er attributeBoxEven"/><text style="dominant-baseline: middle; font-size: 10.2px;" transform="translate(95.765625,145)" y="0" x="0" id="text-entity-users-33ae1e26-be31-5c1d-bf65-e859e9d0308e-attr-6-name" class="er entityLabel">timestamp</text><rect height="22" width="21.5625" y="134" x="149.4375" class="er attributeBoxEven"/><text style="dominant-baseline: middle; font-size: 10.2px;" transform="translate(154.4375,145)" y="0" x="0" id="text-entity-users-33ae1e26-be31-5c1d-bf65-e859e9d0308e-attr-6-key" class="er entityLabel"/><rect height="22" width="90.765625" y="156" x="0" class="er attributeBoxOdd"/><text style="dominant-baseline: middle; font-size: 10.2px;" transform="translate(5,167)" y="0" x="0" id="text-entity-users-33ae1e26-be31-5c1d-bf65-e859e9d0308e-attr-7-type" class="er entityLabel">created_at</text><rect height="22" width="58.671875" y="156" x="90.765625" class="er attributeBoxOdd"/><text style="dominant-baseline: middle; font-size: 10.2px;" transform="translate(95.765625,167)" y="0" x="0" id="text-entity-users-33ae1e26-be31-5c1d-bf65-e859e9d0308e-attr-7-name" class="er entityLabel">timestamp</text><rect height="22" width="21.5625" y="156" x="149.4375" class="er attributeBoxOdd"/><text style="dominant-baseline: middle; font-size: 10.2px;" transform="translate(154.4375,167)" y="0" x="0" id="text-entity-users-33ae1e26-be31-5c1d-bf65-e859e9d0308e-attr-7-key" class="er entityLabel"/><rect height="22" width="90.765625" y="178" x="0" class="er attributeBoxEven"/><text style="dominant-baseline: middle; font-size: 10.2px;" transform="translate(5,189)" y="0" x="0" id="text-entity-users-33ae1e26-be31-5c1d-bf65-e859e9d0308e-attr-8-type" class="er entityLabel">updated_at</text><rect height="22" width="58.671875" y="178" x="90.765625" class="er attributeBoxEven"/><text style="dominant-baseline: middle; font-size: 10.2px;" transform="translate(95.765625,189)" y="0" x="0" id="text-entity-users-33ae1e26-be31-5c1d-bf65-e859e9d0308e-attr-8-name" class="er entityLabel">timestamp</text><rect height="22" width="21.5625" y="178" x="149.4375" class="er attributeBoxEven"/><text style="dominant-baseline: middle; font-size: 10.2px;" transform="translate(154.4375,189)" y="0" x="0" id="text-entity-users-33ae1e26-be31-5c1d-bf65-e859e9d0308e-attr-8-key" class="er entityLabel"/></g><g transform="translate(20,320 )" id="entity-products-ce7ac559-5ef1-5445-aa6b-0190aa04e35c"><rect height="244" width="157.640625" y="0" x="0" class="er entityBox"/><text style="dominant-baseline: middle; text-anchor: middle; font-size: 12px;" transform="translate(78.8203125,12)" y="0" x="0" id="text-entity-products-ce7ac559-5ef1-5445-aa6b-0190aa04e35c" class="er entityLabel">products</text><rect height="22" width="77.40625" y="24" x="0" class="er attributeBoxOdd"/><text style="dominant-baseline: middle; font-size: 10.2px;" transform="translate(5,35)" y="0" x="0" id="text-entity-products-ce7ac559-5ef1-5445-aa6b-0190aa04e35c-attr-1-type" class="er entityLabel">id</text><rect height="22" width="58.671875" y="24" x="77.40625" class="er attributeBoxOdd"/><text style="dominant-baseline: middle; font-size: 10.2px;" transform="translate(82.40625,35)" y="0" x="0" id="text-entity-products-ce7ac559-5ef1-5445-aa6b-0190aa04e35c-attr-1-name" class="er entityLabel">bigint</text><rect height="22" width="21.5625" y="24" x="136.078125" class="er attributeBoxOdd"/><text style="dominant-baseline: middle; font-size: 10.2px;" transform="translate(141.078125,35)" y="0" x="0" id="text-entity-products-ce7ac559-5ef1-5445-aa6b-0190aa04e35c-attr-1-key" class="er entityLabel">PK</text><rect height="22" width="77.40625" y="46" x="0" class="er attributeBoxEven"/><text style="dominant-baseline: middle; font-size: 10.2px;" transform="translate(5,57)" y="0" x="0" id="text-entity-products-ce7ac559-5ef1-5445-aa6b-0190aa04e35c-attr-2-type" class="er entityLabel">name</text><rect height="22" width="58.671875" y="46" x="77.40625" class="er attributeBoxEven"/><text style="dominant-baseline: middle; font-size: 10.2px;" transform="translate(82.40625,57)" y="0" x="0" id="text-entity-products-ce7ac559-5ef1-5445-aa6b-0190aa04e35c-attr-2-name" class="er entityLabel">varchar</text><rect height="22" width="21.5625" y="46" x="136.078125" class="er attributeBoxEven"/><text style="dominant-baseline: middle; font-size: 10.2px;" transform="translate(141.078125,57)" y="0" x="0" id="text-entity-products-ce7ac559-5ef1-5445-aa6b-0190aa04e35c-attr-2-key" class="er entityLabel"/><rect height="22" width="77.40625" y="68" x="0" class="er attributeBoxOdd"/><text style="dominant-baseline: middle; font-size: 10.2px;" transform="translate(5,79)" y="0" x="0" id="text-entity-products-ce7ac559-5ef1-5445-aa6b-0190aa04e35c-attr-3-type" class="er entityLabel">slug</text><rect height="22" width="58.671875" y="68" x="77.40625" class="er attributeBoxOdd"/><text style="dominant-baseline: middle; font-size: 10.2px;" transform="translate(82.40625,79)" y="0" x="0" id="text-entity-products-ce7ac559-5ef1-5445-aa6b-0190aa04e35c-attr-3-name" class="er entityLabel">varchar</text><rect height="22" width="21.5625" y="68" x="136.078125" class="er attributeBoxOdd"/><text style="dominant-baseline: middle; font-size: 10.2px;" transform="translate(141.078125,79)" y="0" x="0" id="text-entity-products-ce7ac559-5ef1-5445-aa6b-0190aa04e35c-attr-3-key" class="er entityLabel"/><rect height="22" width="77.40625" y="90" x="0" class="er attributeBoxEven"/><text style="dominant-baseline: middle; font-size: 10.2px;" transform="translate(5,101)" y="0" x="0" id="text-entity-products-ce7ac559-5ef1-5445-aa6b-0190aa04e35c-attr-4-type" class="er entityLabel">description</text><rect height="22" width="58.671875" y="90" x="77.40625" class="er attributeBoxEven"/><text style="dominant-baseline: middle; font-size: 10.2px;" transform="translate(82.40625,101)" y="0" x="0" id="text-entity-products-ce7ac559-5ef1-5445-aa6b-0190aa04e35c-attr-4-name" class="er entityLabel">text</text><rect height="22" width="21.5625" y="90" x="136.078125" class="er attributeBoxEven"/><text style="dominant-baseline: middle; font-size: 10.2px;" transform="translate(141.078125,101)" y="0" x="0" id="text-entity-products-ce7ac559-5ef1-5445-aa6b-0190aa04e35c-attr-4-key" class="er entityLabel"/><rect height="22" width="77.40625" y="112" x="0" class="er attributeBoxOdd"/><text style="dominant-baseline: middle; font-size: 10.2px;" transform="translate(5,123)" y="0" x="0" id="text-entity-products-ce7ac559-5ef1-5445-aa6b-0190aa04e35c-attr-5-type" class="er entityLabel">price</text><rect height="22" width="58.671875" y="112" x="77.40625" class="er attributeBoxOdd"/><text style="dominant-baseline: middle; font-size: 10.2px;" transform="translate(82.40625,123)" y="0" x="0" id="text-entity-products-ce7ac559-5ef1-5445-aa6b-0190aa04e35c-attr-5-name" class="er entityLabel">decimal</text><rect height="22" width="21.5625" y="112" x="136.078125" class="er attributeBoxOdd"/><text style="dominant-baseline: middle; font-size: 10.2px;" transform="translate(141.078125,123)" y="0" x="0" id="text-entity-products-ce7ac559-5ef1-5445-aa6b-0190aa04e35c-attr-5-key" class="er entityLabel"/><rect height="22" width="77.40625" y="134" x="0" class="er attributeBoxEven"/><text style="dominant-baseline: middle; font-size: 10.2px;" transform="translate(5,145)" y="0" x="0" id="text-entity-products-ce7ac559-5ef1-5445-aa6b-0190aa04e35c-attr-6-type" class="er entityLabel">stock_quantity</text><rect height="22" width="58.671875" y="134" x="77.40625" class="er attributeBoxEven"/><text style="dominant-baseline: middle; font-size: 10.2px;" transform="translate(82.40625,145)" y="0" x="0" id="text-entity-products-ce7ac559-5ef1-5445-aa6b-0190aa04e35c-attr-6-name" class="er entityLabel">integer</text><rect height="22" width="21.5625" y="134" x="136.078125" class="er attributeBoxEven"/><text style="dominant-baseline: middle; font-size: 10.2px;" transform="translate(141.078125,145)" y="0" x="0" id="text-entity-products-ce7ac559-5ef1-5445-aa6b-0190aa04e35c-attr-6-key" class="er entityLabel"/><rect height="22" width="77.40625" y="156" x="0" class="er attributeBoxOdd"/><text style="dominant-baseline: middle; font-size: 10.2px;" transform="translate(5,167)" y="0" x="0" id="text-entity-products-ce7ac559-5ef1-5445-aa6b-0190aa04e35c-attr-7-type" class="er entityLabel">status</text><rect height="22" width="58.671875" y="156" x="77.40625" class="er attributeBoxOdd"/><text style="dominant-baseline: middle; font-size: 10.2px;" transform="translate(82.40625,167)" y="0" x="0" id="text-entity-products-ce7ac559-5ef1-5445-aa6b-0190aa04e35c-attr-7-name" class="er entityLabel">varchar</text><rect height="22" width="21.5625" y="156" x="136.078125" class="er attributeBoxOdd"/><text style="dominant-baseline: middle; font-size: 10.2px;" transform="translate(141.078125,167)" y="0" x="0" id="text-entity-products-ce7ac559-5ef1-5445-aa6b-0190aa04e35c-attr-7-key" class="er entityLabel"/><rect height="22" width="77.40625" y="178" x="0" class="er attributeBoxEven"/><text style="dominant-baseline: middle; font-size: 10.2px;" transform="translate(5,189)" y="0" x="0" id="text-entity-products-ce7ac559-5ef1-5445-aa6b-0190aa04e35c-attr-8-type" class="er entityLabel">created_at</text><rect height="22" width="58.671875" y="178" x="77.40625" class="er attributeBoxEven"/><text style="dominant-baseline: middle; font-size: 10.2px;" transform="translate(82.40625,189)" y="0" x="0" id="text-entity-products-ce7ac559-5ef1-5445-aa6b-0190aa04e35c-attr-8-name" class="er entityLabel">timestamp</text><rect height="22" width="21.5625" y="178" x="136.078125" class="er attributeBoxEven"/><text style="dominant-baseline: middle; font-size: 10.2px;" transform="translate(141.078125,189)" y="0" x="0" id="text-entity-products-ce7ac559-5ef1-5445-aa6b-0190aa04e35c-attr-8-key" class="er entityLabel"/><rect height="22" width="77.40625" y="200" x="0" class="er attributeBoxOdd"/><text style="dominant-baseline: middle; font-size: 10.2px;" transform="translate(5,211)" y="0" x="0" id="text-entity-products-ce7ac559-5ef1-5445-aa6b-0190aa04e35c-attr-9-type" class="er entityLabel">updated_at</text><rect height="22" width="58.671875" y="200" x="77.40625" class="er attributeBoxOdd"/><text style="dominant-baseline: middle; font-size: 10.2px;" transform="translate(82.40625,211)" y="0" x="0" id="text-entity-products-ce7ac559-5ef1-5445-aa6b-0190aa04e35c-attr-9-name" class="er entityLabel">timestamp</text><rect height="22" width="21.5625" y="200" x="136.078125" class="er attributeBoxOdd"/><text style="dominant-baseline: middle; font-size: 10.2px;" transform="translate(141.078125,211)" y="0" x="0" id="text-entity-products-ce7ac559-5ef1-5445-aa6b-0190aa04e35c-attr-9-key" class="er entityLabel"/><rect height="22" width="77.40625" y="222" x="0" class="er attributeBoxEven"/><text style="dominant-baseline: middle; font-size: 10.2px;" transform="translate(5,233)" y="0" x="0" id="text-entity-products-ce7ac559-5ef1-5445-aa6b-0190aa04e35c-attr-10-type" class="er entityLabel">deleted_at</text><rect height="22" width="58.671875" y="222" x="77.40625" class="er attributeBoxEven"/><text style="dominant-baseline: middle; font-size: 10.2px;" transform="translate(82.40625,233)" y="0" x="0" id="text-entity-products-ce7ac559-5ef1-5445-aa6b-0190aa04e35c-attr-10-name" class="er entityLabel">timestamp</text><rect height="22" width="21.5625" y="222" x="136.078125" class="er attributeBoxEven"/><text style="dominant-baseline: middle; font-size: 10.2px;" transform="translate(141.078125,233)" y="0" x="0" id="text-entity-products-ce7ac559-5ef1-5445-aa6b-0190aa04e35c-attr-10-key" class="er entityLabel"/></g><g transform="translate(322.603515625,320 )" id="entity-orders-b199f09d-589f-57c9-bdcc-48b896df9a97"><rect height="244" width="167.671875" y="0" x="0" class="er entityBox"/><text style="dominant-baseline: middle; text-anchor: middle; font-size: 12px;" transform="translate(83.8359375,12)" y="0" x="0" id="text-entity-orders-b199f09d-589f-57c9-bdcc-48b896df9a97" class="er entityLabel">orders</text><rect height="22" width="87.4375" y="24" x="0" class="er attributeBoxOdd"/><text style="dominant-baseline: middle; font-size: 10.2px;" transform="translate(5,35)" y="0" x="0" id="text-entity-orders-b199f09d-589f-57c9-bdcc-48b896df9a97-attr-1-type" class="er entityLabel">id</text><rect height="22" width="58.671875" y="24" x="87.4375" class="er attributeBoxOdd"/><text style="dominant-baseline: middle; font-size: 10.2px;" transform="translate(92.4375,35)" y="0" x="0" id="text-entity-orders-b199f09d-589f-57c9-bdcc-48b896df9a97-attr-1-name" class="er entityLabel">bigint</text><rect height="22" width="21.5625" y="24" x="146.109375" class="er attributeBoxOdd"/><text style="dominant-baseline: middle; font-size: 10.2px;" transform="translate(151.109375,35)" y="0" x="0" id="text-entity-orders-b199f09d-589f-57c9-bdcc-48b896df9a97-attr-1-key" class="er entityLabel">PK</text><rect height="22" width="87.4375" y="46" x="0" class="er attributeBoxEven"/><text style="dominant-baseline: middle; font-size: 10.2px;" transform="translate(5,57)" y="0" x="0" id="text-entity-orders-b199f09d-589f-57c9-bdcc-48b896df9a97-attr-2-type" class="er entityLabel">user_id</text><rect height="22" width="58.671875" y="46" x="87.4375" class="er attributeBoxEven"/><text style="dominant-baseline: middle; font-size: 10.2px;" transform="translate(92.4375,57)" y="0" x="0" id="text-entity-orders-b199f09d-589f-57c9-bdcc-48b896df9a97-attr-2-name" class="er entityLabel">bigint</text><rect height="22" width="21.5625" y="46" x="146.109375" class="er attributeBoxEven"/><text style="dominant-baseline: middle; font-size: 10.2px;" transform="translate(151.109375,57)" y="0" x="0" id="text-entity-orders-b199f09d-589f-57c9-bdcc-48b896df9a97-attr-2-key" class="er entityLabel">FK</text><rect height="22" width="87.4375" y="68" x="0" class="er attributeBoxOdd"/><text style="dominant-baseline: middle; font-size: 10.2px;" transform="translate(5,79)" y="0" x="0" id="text-entity-orders-b199f09d-589f-57c9-bdcc-48b896df9a97-attr-3-type" class="er entityLabel">status</text><rect height="22" width="58.671875" y="68" x="87.4375" class="er attributeBoxOdd"/><text style="dominant-baseline: middle; font-size: 10.2px;" transform="translate(92.4375,79)" y="0" x="0" id="text-entity-orders-b199f09d-589f-57c9-bdcc-48b896df9a97-attr-3-name" class="er entityLabel">varchar</text><rect height="22" width="21.5625" y="68" x="146.109375" class="er attributeBoxOdd"/><text style="dominant-baseline: middle; font-size: 10.2px;" transform="translate(151.109375,79)" y="0" x="0" id="text-entity-orders-b199f09d-589f-57c9-bdcc-48b896df9a97-attr-3-key" class="er entityLabel"/><rect height="22" width="87.4375" y="90" x="0" class="er attributeBoxEven"/><text style="dominant-baseline: middle; font-size: 10.2px;" transform="translate(5,101)" y="0" x="0" id="text-entity-orders-b199f09d-589f-57c9-bdcc-48b896df9a97-attr-4-type" class="er entityLabel">total_price</text><rect height="22" width="58.671875" y="90" x="87.4375" class="er attributeBoxEven"/><text style="dominant-baseline: middle; font-size: 10.2px;" transform="translate(92.4375,101)" y="0" x="0" id="text-entity-orders-b199f09d-589f-57c9-bdcc-48b896df9a97-attr-4-name" class="er entityLabel">decimal</text><rect height="22" width="21.5625" y="90" x="146.109375" class="er attributeBoxEven"/><text style="dominant-baseline: middle; font-size: 10.2px;" transform="translate(151.109375,101)" y="0" x="0" id="text-entity-orders-b199f09d-589f-57c9-bdcc-48b896df9a97-attr-4-key" class="er entityLabel"/><rect height="22" width="87.4375" y="112" x="0" class="er attributeBoxOdd"/><text style="dominant-baseline: middle; font-size: 10.2px;" transform="translate(5,123)" y="0" x="0" id="text-entity-orders-b199f09d-589f-57c9-bdcc-48b896df9a97-attr-5-type" class="er entityLabel">shipping_address</text><rect height="22" width="58.671875" y="112" x="87.4375" class="er attributeBoxOdd"/><text style="dominant-baseline: middle; font-size: 10.2px;" transform="translate(92.4375,123)" y="0" x="0" id="text-entity-orders-b199f09d-589f-57c9-bdcc-48b896df9a97-attr-5-name" class="er entityLabel">text</text><rect height="22" width="21.5625" y="112" x="146.109375" class="er attributeBoxOdd"/><text style="dominant-baseline: middle; font-size: 10.2px;" transform="translate(151.109375,123)" y="0" x="0" id="text-entity-orders-b199f09d-589f-57c9-bdcc-48b896df9a97-attr-5-key" class="er entityLabel"/><rect height="22" width="87.4375" y="134" x="0" class="er attributeBoxEven"/><text style="dominant-baseline: middle; font-size: 10.2px;" transform="translate(5,145)" y="0" x="0" id="text-entity-orders-b199f09d-589f-57c9-bdcc-48b896df9a97-attr-6-type" class="er entityLabel">billing_address</text><rect height="22" width="58.671875" y="134" x="87.4375" class="er attributeBoxEven"/><text style="dominant-baseline: middle; font-size: 10.2px;" transform="translate(92.4375,145)" y="0" x="0" id="text-entity-orders-b199f09d-589f-57c9-bdcc-48b896df9a97-attr-6-name" class="er entityLabel">text</text><rect height="22" width="21.5625" y="134" x="146.109375" class="er attributeBoxEven"/><text style="dominant-baseline: middle; font-size: 10.2px;" transform="translate(151.109375,145)" y="0" x="0" id="text-entity-orders-b199f09d-589f-57c9-bdcc-48b896df9a97-attr-6-key" class="er entityLabel"/><rect height="22" width="87.4375" y="156" x="0" class="er attributeBoxOdd"/><text style="dominant-baseline: middle; font-size: 10.2px;" transform="translate(5,167)" y="0" x="0" id="text-entity-orders-b199f09d-589f-57c9-bdcc-48b896df9a97-attr-7-type" class="er entityLabel">payment_status</text><rect height="22" width="58.671875" y="156" x="87.4375" class="er attributeBoxOdd"/><text style="dominant-baseline: middle; font-size: 10.2px;" transform="translate(92.4375,167)" y="0" x="0" id="text-entity-orders-b199f09d-589f-57c9-bdcc-48b896df9a97-attr-7-name" class="er entityLabel">varchar</text><rect height="22" width="21.5625" y="156" x="146.109375" class="er attributeBoxOdd"/><text style="dominant-baseline: middle; font-size: 10.2px;" transform="translate(151.109375,167)" y="0" x="0" id="text-entity-orders-b199f09d-589f-57c9-bdcc-48b896df9a97-attr-7-key" class="er entityLabel"/><rect height="22" width="87.4375" y="178" x="0" class="er attributeBoxEven"/><text style="dominant-baseline: middle; font-size: 10.2px;" transform="translate(5,189)" y="0" x="0" id="text-entity-orders-b199f09d-589f-57c9-bdcc-48b896df9a97-attr-8-type" class="er entityLabel">created_at</text><rect height="22" width="58.671875" y="178" x="87.4375" class="er attributeBoxEven"/><text style="dominant-baseline: middle; font-size: 10.2px;" transform="translate(92.4375,189)" y="0" x="0" id="text-entity-orders-b199f09d-589f-57c9-bdcc-48b896df9a97-attr-8-name" class="er entityLabel">timestamp</text><rect height="22" width="21.5625" y="178" x="146.109375" class="er attributeBoxEven"/><text style="dominant-baseline: middle; font-size: 10.2px;" transform="translate(151.109375,189)" y="0" x="0" id="text-entity-orders-b199f09d-589f-57c9-bdcc-48b896df9a97-attr-8-key" class="er entityLabel"/><rect height="22" width="87.4375" y="200" x="0" class="er attributeBoxOdd"/><text style="dominant-baseline: middle; font-size: 10.2px;" transform="translate(5,211)" y="0" x="0" id="text-entity-orders-b199f09d-589f-57c9-bdcc-48b896df9a97-attr-9-type" class="er entityLabel">updated_at</text><rect height="22" width="58.671875" y="200" x="87.4375" class="er attributeBoxOdd"/><text style="dominant-baseline: middle; font-size: 10.2px;" transform="translate(92.4375,211)" y="0" x="0" id="text-entity-orders-b199f09d-589f-57c9-bdcc-48b896df9a97-attr-9-name" class="er entityLabel">timestamp</text><rect height="22" width="21.5625" y="200" x="146.109375" class="er attributeBoxOdd"/><text style="dominant-baseline: middle; font-size: 10.2px;" transform="translate(151.109375,211)" y="0" x="0" id="text-entity-orders-b199f09d-589f-57c9-bdcc-48b896df9a97-attr-9-key" class="er entityLabel"/><rect height="22" width="87.4375" y="222" x="0" class="er attributeBoxEven"/><text style="dominant-baseline: middle; font-size: 10.2px;" transform="translate(5,233)" y="0" x="0" id="text-entity-orders-b199f09d-589f-57c9-bdcc-48b896df9a97-attr-10-type" class="er entityLabel">deleted_at</text><rect height="22" width="58.671875" y="222" x="87.4375" class="er attributeBoxEven"/><text style="dominant-baseline: middle; font-size: 10.2px;" transform="translate(92.4375,233)" y="0" x="0" id="text-entity-orders-b199f09d-589f-57c9-bdcc-48b896df9a97-attr-10-name" class="er entityLabel">timestamp</text><rect height="22" width="21.5625" y="222" x="146.109375" class="er attributeBoxEven"/><text style="dominant-baseline: middle; font-size: 10.2px;" transform="translate(151.109375,233)" y="0" x="0" id="text-entity-orders-b199f09d-589f-57c9-bdcc-48b896df9a97-attr-10-key" class="er entityLabel"/></g><g transform="translate(77.53125,664 )" id="entity-orderitems-c43af19d-134d-58fe-8014-c2b87ba1581e"><rect height="222" width="142.578125" y="0" x="0" class="er entityBox"/><text style="dominant-baseline: middle; text-anchor: middle; font-size: 12px;" transform="translate(71.2890625,12)" y="0" x="0" id="text-entity-orderitems-c43af19d-134d-58fe-8014-c2b87ba1581e" class="er entityLabel">order_items</text><rect height="22" width="62.34375" y="24" x="0" class="er attributeBoxOdd"/><text style="dominant-baseline: middle; font-size: 10.2px;" transform="translate(5,35)" y="0" x="0" id="text-entity-orderitems-c43af19d-134d-58fe-8014-c2b87ba1581e-attr-1-type" class="er entityLabel">id</text><rect height="22" width="58.671875" y="24" x="62.34375" class="er attributeBoxOdd"/><text style="dominant-baseline: middle; font-size: 10.2px;" transform="translate(67.34375,35)" y="0" x="0" id="text-entity-orderitems-c43af19d-134d-58fe-8014-c2b87ba1581e-attr-1-name" class="er entityLabel">bigint</text><rect height="22" width="21.5625" y="24" x="121.015625" class="er attributeBoxOdd"/><text style="dominant-baseline: middle; font-size: 10.2px;" transform="translate(126.015625,35)" y="0" x="0" id="text-entity-orderitems-c43af19d-134d-58fe-8014-c2b87ba1581e-attr-1-key" class="er entityLabel">PK</text><rect height="22" width="62.34375" y="46" x="0" class="er attributeBoxEven"/><text style="dominant-baseline: middle; font-size: 10.2px;" transform="translate(5,57)" y="0" x="0" id="text-entity-orderitems-c43af19d-134d-58fe-8014-c2b87ba1581e-attr-2-type" class="er entityLabel">order_id</text><rect height="22" width="58.671875" y="46" x="62.34375" class="er attributeBoxEven"/><text style="dominant-baseline: middle; font-size: 10.2px;" transform="translate(67.34375,57)" y="0" x="0" id="text-entity-orderitems-c43af19d-134d-58fe-8014-c2b87ba1581e-attr-2-name" class="er entityLabel">bigint</text><rect height="22" width="21.5625" y="46" x="121.015625" class="er attributeBoxEven"/><text style="dominant-baseline: middle; font-size: 10.2px;" transform="translate(126.015625,57)" y="0" x="0" id="text-entity-orderitems-c43af19d-134d-58fe-8014-c2b87ba1581e-attr-2-key" class="er entityLabel">FK</text><rect height="22" width="62.34375" y="68" x="0" class="er attributeBoxOdd"/><text style="dominant-baseline: middle; font-size: 10.2px;" transform="translate(5,79)" y="0" x="0" id="text-entity-orderitems-c43af19d-134d-58fe-8014-c2b87ba1581e-attr-3-type" class="er entityLabel">product_id</text><rect height="22" width="58.671875" y="68" x="62.34375" class="er attributeBoxOdd"/><text style="dominant-baseline: middle; font-size: 10.2px;" transform="translate(67.34375,79)" y="0" x="0" id="text-entity-orderitems-c43af19d-134d-58fe-8014-c2b87ba1581e-attr-3-name" class="er entityLabel">bigint</text><rect height="22" width="21.5625" y="68" x="121.015625" class="er attributeBoxOdd"/><text style="dominant-baseline: middle; font-size: 10.2px;" transform="translate(126.015625,79)" y="0" x="0" id="text-entity-orderitems-c43af19d-134d-58fe-8014-c2b87ba1581e-attr-3-key" class="er entityLabel">FK</text><rect height="22" width="62.34375" y="90" x="0" class="er attributeBoxEven"/><text style="dominant-baseline: middle; font-size: 10.2px;" transform="translate(5,101)" y="0" x="0" id="text-entity-orderitems-c43af19d-134d-58fe-8014-c2b87ba1581e-attr-4-type" class="er entityLabel">quantity</text><rect height="22" width="58.671875" y="90" x="62.34375" class="er attributeBoxEven"/><text style="dominant-baseline: middle; font-size: 10.2px;" transform="translate(67.34375,101)" y="0" x="0" id="text-entity-orderitems-c43af19d-134d-58fe-8014-c2b87ba1581e-attr-4-name" class="er entityLabel">integer</text><rect height="22" width="21.5625" y="90" x="121.015625" class="er attributeBoxEven"/><text style="dominant-baseline: middle; font-size: 10.2px;" transform="translate(126.015625,101)" y="0" x="0" id="text-entity-orderitems-c43af19d-134d-58fe-8014-c2b87ba1581e-attr-4-key" class="er entityLabel"/><rect height="22" width="62.34375" y="112" x="0" class="er attributeBoxOdd"/><text style="dominant-baseline: middle; font-size: 10.2px;" transform="translate(5,123)" y="0" x="0" id="text-entity-orderitems-c43af19d-134d-58fe-8014-c2b87ba1581e-attr-5-type" class="er entityLabel">unit_price</text><rect height="22" width="58.671875" y="112" x="62.34375" class="er attributeBoxOdd"/><text style="dominant-baseline: middle; font-size: 10.2px;" transform="translate(67.34375,123)" y="0" x="0" id="text-entity-orderitems-c43af19d-134d-58fe-8014-c2b87ba1581e-attr-5-name" class="er entityLabel">decimal</text><rect height="22" width="21.5625" y="112" x="121.015625" class="er attributeBoxOdd"/><text style="dominant-baseline: middle; font-size: 10.2px;" transform="translate(126.015625,123)" y="0" x="0" id="text-entity-orderitems-c43af19d-134d-58fe-8014-c2b87ba1581e-attr-5-key" class="er entityLabel"/><rect height="22" width="62.34375" y="134" x="0" class="er attributeBoxEven"/><text style="dominant-baseline: middle; font-size: 10.2px;" transform="translate(5,145)" y="0" x="0" id="text-entity-orderitems-c43af19d-134d-58fe-8014-c2b87ba1581e-attr-6-type" class="er entityLabel">subtotal</text><rect height="22" width="58.671875" y="134" x="62.34375" class="er attributeBoxEven"/><text style="dominant-baseline: middle; font-size: 10.2px;" transform="translate(67.34375,145)" y="0" x="0" id="text-entity-orderitems-c43af19d-134d-58fe-8014-c2b87ba1581e-attr-6-name" class="er entityLabel">decimal</text><rect height="22" width="21.5625" y="134" x="121.015625" class="er attributeBoxEven"/><text style="dominant-baseline: middle; font-size: 10.2px;" transform="translate(126.015625,145)" y="0" x="0" id="text-entity-orderitems-c43af19d-134d-58fe-8014-c2b87ba1581e-attr-6-key" class="er entityLabel"/><rect height="22" width="62.34375" y="156" x="0" class="er attributeBoxOdd"/><text style="dominant-baseline: middle; font-size: 10.2px;" transform="translate(5,167)" y="0" x="0" id="text-entity-orderitems-c43af19d-134d-58fe-8014-c2b87ba1581e-attr-7-type" class="er entityLabel">created_at</text><rect height="22" width="58.671875" y="156" x="62.34375" class="er attributeBoxOdd"/><text style="dominant-baseline: middle; font-size: 10.2px;" transform="translate(67.34375,167)" y="0" x="0" id="text-entity-orderitems-c43af19d-134d-58fe-8014-c2b87ba1581e-attr-7-name" class="er entityLabel">timestamp</text><rect height="22" width="21.5625" y="156" x="121.015625" class="er attributeBoxOdd"/><text style="dominant-baseline: middle; font-size: 10.2px;" transform="translate(126.015625,167)" y="0" x="0" id="text-entity-orderitems-c43af19d-134d-58fe-8014-c2b87ba1581e-attr-7-key" class="er entityLabel"/><rect height="22" width="62.34375" y="178" x="0" class="er attributeBoxEven"/><text style="dominant-baseline: middle; font-size: 10.2px;" transform="translate(5,189)" y="0" x="0" id="text-entity-orderitems-c43af19d-134d-58fe-8014-c2b87ba1581e-attr-8-type" class="er entityLabel">updated_at</text><rect height="22" width="58.671875" y="178" x="62.34375" class="er attributeBoxEven"/><text style="dominant-baseline: middle; font-size: 10.2px;" transform="translate(67.34375,189)" y="0" x="0" id="text-entity-orderitems-c43af19d-134d-58fe-8014-c2b87ba1581e-attr-8-name" class="er entityLabel">timestamp</text><rect height="22" width="21.5625" y="178" x="121.015625" class="er attributeBoxEven"/><text style="dominant-baseline: middle; font-size: 10.2px;" transform="translate(126.015625,189)" y="0" x="0" id="text-entity-orderitems-c43af19d-134d-58fe-8014-c2b87ba1581e-attr-8-key" class="er entityLabel"/><rect height="22" width="62.34375" y="200" x="0" class="er attributeBoxOdd"/><text style="dominant-baseline: middle; font-size: 10.2px;" transform="translate(5,211)" y="0" x="0" id="text-entity-orderitems-c43af19d-134d-58fe-8014-c2b87ba1581e-attr-9-type" class="er entityLabel">deleted_at</text><rect height="22" width="58.671875" y="200" x="62.34375" class="er attributeBoxOdd"/><text style="dominant-baseline: middle; font-size: 10.2px;" transform="translate(67.34375,211)" y="0" x="0" id="text-entity-orderitems-c43af19d-134d-58fe-8014-c2b87ba1581e-attr-9-name" class="er entityLabel">timestamp</text><rect height="22" width="21.5625" y="200" x="121.015625" class="er attributeBoxOdd"/><text style="dominant-baseline: middle; font-size: 10.2px;" transform="translate(126.015625,211)" y="0" x="0" id="text-entity-orderitems-c43af19d-134d-58fe-8014-c2b87ba1581e-attr-9-key" class="er entityLabel"/></g><g transform="translate(375.146484375,675 )" id="entity-payments-a1373e2f-d214-56cc-80e6-1219d565e3e2"><rect height="200" width="162.5859375" y="0" x="0" class="er entityBox"/><text style="dominant-baseline: middle; text-anchor: middle; font-size: 12px;" transform="translate(81.29296875,12)" y="0" x="0" id="text-entity-payments-a1373e2f-d214-56cc-80e6-1219d565e3e2" class="er entityLabel">payments</text><rect height="22" width="82.3515625" y="24" x="0" class="er attributeBoxOdd"/><text style="dominant-baseline: middle; font-size: 10.2px;" transform="translate(5,35)" y="0" x="0" id="text-entity-payments-a1373e2f-d214-56cc-80e6-1219d565e3e2-attr-1-type" class="er entityLabel">id</text><rect height="22" width="58.671875" y="24" x="82.3515625" class="er attributeBoxOdd"/><text style="dominant-baseline: middle; font-size: 10.2px;" transform="translate(87.3515625,35)" y="0" x="0" id="text-entity-payments-a1373e2f-d214-56cc-80e6-1219d565e3e2-attr-1-name" class="er entityLabel">bigint</text><rect height="22" width="21.5625" y="24" x="141.0234375" class="er attributeBoxOdd"/><text style="dominant-baseline: middle; font-size: 10.2px;" transform="translate(146.0234375,35)" y="0" x="0" id="text-entity-payments-a1373e2f-d214-56cc-80e6-1219d565e3e2-attr-1-key" class="er entityLabel">PK</text><rect height="22" width="82.3515625" y="46" x="0" class="er attributeBoxEven"/><text style="dominant-baseline: middle; font-size: 10.2px;" transform="translate(5,57)" y="0" x="0" id="text-entity-payments-a1373e2f-d214-56cc-80e6-1219d565e3e2-attr-2-type" class="er entityLabel">order_id</text><rect height="22" width="58.671875" y="46" x="82.3515625" class="er attributeBoxEven"/><text style="dominant-baseline: middle; font-size: 10.2px;" transform="translate(87.3515625,57)" y="0" x="0" id="text-entity-payments-a1373e2f-d214-56cc-80e6-1219d565e3e2-attr-2-name" class="er entityLabel">bigint</text><rect height="22" width="21.5625" y="46" x="141.0234375" class="er attributeBoxEven"/><text style="dominant-baseline: middle; font-size: 10.2px;" transform="translate(146.0234375,57)" y="0" x="0" id="text-entity-payments-a1373e2f-d214-56cc-80e6-1219d565e3e2-attr-2-key" class="er entityLabel">FK</text><rect height="22" width="82.3515625" y="68" x="0" class="er attributeBoxOdd"/><text style="dominant-baseline: middle; font-size: 10.2px;" transform="translate(5,79)" y="0" x="0" id="text-entity-payments-a1373e2f-d214-56cc-80e6-1219d565e3e2-attr-3-type" class="er entityLabel">payment_status</text><rect height="22" width="58.671875" y="68" x="82.3515625" class="er attributeBoxOdd"/><text style="dominant-baseline: middle; font-size: 10.2px;" transform="translate(87.3515625,79)" y="0" x="0" id="text-entity-payments-a1373e2f-d214-56cc-80e6-1219d565e3e2-attr-3-name" class="er entityLabel">varchar</text><rect height="22" width="21.5625" y="68" x="141.0234375" class="er attributeBoxOdd"/><text style="dominant-baseline: middle; font-size: 10.2px;" transform="translate(146.0234375,79)" y="0" x="0" id="text-entity-payments-a1373e2f-d214-56cc-80e6-1219d565e3e2-attr-3-key" class="er entityLabel"/><rect height="22" width="82.3515625" y="90" x="0" class="er attributeBoxEven"/><text style="dominant-baseline: middle; font-size: 10.2px;" transform="translate(5,101)" y="0" x="0" id="text-entity-payments-a1373e2f-d214-56cc-80e6-1219d565e3e2-attr-4-type" class="er entityLabel">amount</text><rect height="22" width="58.671875" y="90" x="82.3515625" class="er attributeBoxEven"/><text style="dominant-baseline: middle; font-size: 10.2px;" transform="translate(87.3515625,101)" y="0" x="0" id="text-entity-payments-a1373e2f-d214-56cc-80e6-1219d565e3e2-attr-4-name" class="er entityLabel">decimal</text><rect height="22" width="21.5625" y="90" x="141.0234375" class="er attributeBoxEven"/><text style="dominant-baseline: middle; font-size: 10.2px;" transform="translate(146.0234375,101)" y="0" x="0" id="text-entity-payments-a1373e2f-d214-56cc-80e6-1219d565e3e2-attr-4-key" class="er entityLabel"/><rect height="22" width="82.3515625" y="112" x="0" class="er attributeBoxOdd"/><text style="dominant-baseline: middle; font-size: 10.2px;" transform="translate(5,123)" y="0" x="0" id="text-entity-payments-a1373e2f-d214-56cc-80e6-1219d565e3e2-attr-5-type" class="er entityLabel">status</text><rect height="22" width="58.671875" y="112" x="82.3515625" class="er attributeBoxOdd"/><text style="dominant-baseline: middle; font-size: 10.2px;" transform="translate(87.3515625,123)" y="0" x="0" id="text-entity-payments-a1373e2f-d214-56cc-80e6-1219d565e3e2-attr-5-name" class="er entityLabel">varchar</text><rect height="22" width="21.5625" y="112" x="141.0234375" class="er attributeBoxOdd"/><text style="dominant-baseline: middle; font-size: 10.2px;" transform="translate(146.0234375,123)" y="0" x="0" id="text-entity-payments-a1373e2f-d214-56cc-80e6-1219d565e3e2-attr-5-key" class="er entityLabel"/><rect height="22" width="82.3515625" y="134" x="0" class="er attributeBoxEven"/><text style="dominant-baseline: middle; font-size: 10.2px;" transform="translate(5,145)" y="0" x="0" id="text-entity-payments-a1373e2f-d214-56cc-80e6-1219d565e3e2-attr-6-type" class="er entityLabel">transaction_id</text><rect height="22" width="58.671875" y="134" x="82.3515625" class="er attributeBoxEven"/><text style="dominant-baseline: middle; font-size: 10.2px;" transform="translate(87.3515625,145)" y="0" x="0" id="text-entity-payments-a1373e2f-d214-56cc-80e6-1219d565e3e2-attr-6-name" class="er entityLabel">varchar</text><rect height="22" width="21.5625" y="134" x="141.0234375" class="er attributeBoxEven"/><text style="dominant-baseline: middle; font-size: 10.2px;" transform="translate(146.0234375,145)" y="0" x="0" id="text-entity-payments-a1373e2f-d214-56cc-80e6-1219d565e3e2-attr-6-key" class="er entityLabel"/><rect height="22" width="82.3515625" y="156" x="0" class="er attributeBoxOdd"/><text style="dominant-baseline: middle; font-size: 10.2px;" transform="translate(5,167)" y="0" x="0" id="text-entity-payments-a1373e2f-d214-56cc-80e6-1219d565e3e2-attr-7-type" class="er entityLabel">created_at</text><rect height="22" width="58.671875" y="156" x="82.3515625" class="er attributeBoxOdd"/><text style="dominant-baseline: middle; font-size: 10.2px;" transform="translate(87.3515625,167)" y="0" x="0" id="text-entity-payments-a1373e2f-d214-56cc-80e6-1219d565e3e2-attr-7-name" class="er entityLabel">timestamp</text><rect height="22" width="21.5625" y="156" x="141.0234375" class="er attributeBoxOdd"/><text style="dominant-baseline: middle; font-size: 10.2px;" transform="translate(146.0234375,167)" y="0" x="0" id="text-entity-payments-a1373e2f-d214-56cc-80e6-1219d565e3e2-attr-7-key" class="er entityLabel"/><rect height="22" width="82.3515625" y="178" x="0" class="er attributeBoxEven"/><text style="dominant-baseline: middle; font-size: 10.2px;" transform="translate(5,189)" y="0" x="0" id="text-entity-payments-a1373e2f-d214-56cc-80e6-1219d565e3e2-attr-8-type" class="er entityLabel">updated_at</text><rect height="22" width="58.671875" y="178" x="82.3515625" class="er attributeBoxEven"/><text style="dominant-baseline: middle; font-size: 10.2px;" transform="translate(87.3515625,189)" y="0" x="0" id="text-entity-payments-a1373e2f-d214-56cc-80e6-1219d565e3e2-attr-8-name" class="er entityLabel">timestamp</text><rect height="22" width="21.5625" y="178" x="141.0234375" class="er attributeBoxEven"/><text style="dominant-baseline: middle; font-size: 10.2px;" transform="translate(146.0234375,189)" y="0" x="0" id="text-entity-payments-a1373e2f-d214-56cc-80e6-1219d565e3e2-attr-8-key" class="er entityLabel"/></g><rect height="14" width="33.875" y="263" x="389.501953125" class="er relationshipLabelBox"/><text style="text-anchor: middle; dominant-baseline: middle; font-size: 12px;" y="270" x="406.439453125" id="rel1" class="er relationshipLabel">places</text><rect height="14" width="44.8359375" y="615.7315063476562" x="250.01837158203125" class="er relationshipLabelBox"/><text style="text-anchor: middle; dominant-baseline: middle; font-size: 12px;" y="622.7315063476562" x="272.43634033203125" id="rel2" class="er relationshipLabel">contains</text><rect height="14" width="17.71875" y="611.79638671875" x="445.523193359375" class="er relationshipLabelBox"/><text style="text-anchor: middle; dominant-baseline: middle; font-size: 12px;" y="618.79638671875" x="454.382568359375" id="rel3" class="er relationshipLabel">has</text><rect height="14" width="62.203125" y="607.7782592773438" x="70.42945861816406" class="er relationshipLabelBox"/><text style="text-anchor: middle; dominant-baseline: middle; font-size: 12px;" y="614.7782592773438" x="101.53102111816406" id="rel4" class="er relationshipLabel">included_in</text></svg>